<?xml version="1.0" standalone="no"?>
<!DOCTYPE svg PUBLIC "-//W3C//DTD SVG 20010904//EN"
 "http://www.w3.org/TR/2001/REC-SVG-20010904/DTD/svg10.dtd">
<svg version="1.0" xmlns="http://www.w3.org/2000/svg"
 width="512.000000pt" height="512.000000pt" viewBox="0 0 512.000000 512.000000"
 preserveAspectRatio="xMidYMid meet">
<metadata>
Created by potrace 1.14, written by Peter Selinger 2001-2017
</metadata>
<g transform="translate(0.000000,512.000000) scale(0.100000,-0.100000)"
fill="#000000" stroke="none">
<path d="M770 3739 c1 -795 5 -1401 10 -1424 5 -22 10 -61 12 -87 2 -25 6 -44
9 -42 9 5 20 -56 12 -69 -3 -5 -2 -7 4 -4 6 4 16 -12 22 -36 7 -23 24 -61 37
-85 14 -23 22 -48 18 -55 -4 -6 -4 -9 1 -5 8 7 55 -55 55 -72 0 -6 3 -10 8
-10 4 0 18 -17 32 -38 24 -35 146 -162 157 -162 11 0 31 -28 25 -35 -4 -5 -2
-5 5 -2 6 4 18 1 26 -7 8 -8 17 -12 21 -9 3 4 6 1 6 -4 0 -6 -6 -14 -12 -17
-7 -3 -3 -3 8 -1 12 3 28 0 35 -7 12 -11 124 -70 139 -73 29 -6 78 -30 74 -37
-3 -4 0 -8 5 -8 6 0 11 5 11 11 0 8 5 8 15 -1 8 -7 13 -16 10 -19 -2 -4 2 -8
10 -8 8 0 12 4 9 9 -6 10 20 11 30 1 7 -8 25 -11 74 -15 17 -1 32 -6 32 -10 0
-4 7 -5 15 -2 8 4 23 0 32 -7 12 -10 15 -10 9 -1 -4 7 -1 12 9 12 9 0 13 -5 9
-11 -4 -7 1 -7 16 1 18 10 21 10 14 -2 -6 -10 -5 -11 7 -2 8 6 22 10 32 9 9
-2 17 2 17 8 3 236 -2 2736 -5 2768 -26 274 -180 548 -400 714 -175 131 -352
197 -568 212 l-87 5 0 -1383z"/>
<path d="M4105 5019 c-643 -445 -1653 -1161 -1698 -1205 -153 -150 -247 -328
-283 -538 -14 -77 -16 -188 -16 -706 1 -338 3 -628 6 -645 12 -80 38 -187 51
-211 8 -15 12 -31 9 -36 -3 -4 0 -8 5 -8 6 0 11 -6 11 -14 0 -7 7 -26 14 -42
8 -15 12 -32 9 -37 -3 -6 -1 -7 4 -4 13 8 26 -20 16 -35 -3 -6 -1 -8 4 -5 16
10 44 -38 31 -51 -7 -7 -4 -10 8 -9 11 1 18 -4 17 -10 -2 -7 3 -13 11 -13 8 0
17 -8 21 -18 7 -19 4 -28 -8 -24 -5 1 -6 -2 -2 -8 3 -6 11 -8 16 -5 5 4 21 -3
35 -14 15 -12 23 -21 19 -21 -4 0 5 -10 19 -21 22 -17 25 -24 14 -31 -10 -7
-8 -8 5 -4 10 3 25 -2 35 -12 10 -9 47 -37 82 -62 36 -24 67 -48 68 -52 2 -4
10 -8 18 -8 8 0 17 -7 20 -15 4 -8 10 -15 16 -15 11 0 81 -51 86 -63 2 -4 8
-5 13 -1 5 3 12 -2 15 -10 3 -9 12 -16 20 -16 8 0 14 -5 14 -11 0 -5 5 -7 10
-4 6 3 10 2 10 -4 0 -5 -6 -12 -12 -15 -7 -3 -4 -4 8 -1 13 3 30 -3 45 -17 14
-13 27 -23 29 -24 18 -2 59 -38 53 -47 -3 -6 -1 -7 6 -3 9 6 165 -96 191 -124
3 -3 19 -13 35 -22 18 -10 29 -24 28 -35 -1 -10 0 -12 3 -6 9 21 44 -4 39 -27
-2 -12 0 -18 6 -15 5 4 7 11 4 16 -4 5 -3 9 2 9 7 0 27 -15 80 -60 7 -5 17
-10 24 -10 6 0 9 -6 6 -14 -4 -10 0 -12 14 -9 10 3 19 1 19 -5 0 -5 9 -12 21
-15 13 -4 18 -10 13 -18 -4 -8 -3 -10 4 -5 6 4 20 -2 31 -13 11 -11 22 -17 25
-14 3 4 6 1 6 -5 0 -7 7 -12 15 -12 9 0 18 -6 21 -14 3 -8 19 -20 35 -26 16
-7 29 -18 29 -26 0 -8 6 -11 15 -8 8 4 17 -1 21 -10 3 -9 10 -13 15 -10 5 3 9
1 9 -3 0 -5 14 -17 30 -27 17 -9 27 -22 24 -28 -4 -7 -2 -8 5 -4 13 9 192
-114 184 -127 -3 -5 3 -7 13 -5 12 2 18 -2 16 -10 -1 -8 2 -11 7 -7 6 3 19 -3
30 -14 11 -11 21 -18 23 -15 2 2 18 -9 35 -25 18 -16 34 -26 37 -23 3 2 8 -3
12 -12 3 -9 10 -13 15 -10 5 3 9 1 9 -4 0 -5 12 -14 26 -20 14 -7 23 -16 19
-21 -3 -5 -1 -12 5 -16 5 -3 10 0 10 7 0 8 9 21 20 31 11 9 20 24 20 32 0 8 4
15 8 15 4 0 13 14 19 31 7 17 16 29 20 26 4 -3 9 5 9 16 2 22 45 148 54 157 3
3 6 14 7 25 1 11 5 34 9 50 3 17 8 89 10 160 5 184 -24 311 -108 480 -86 172
-185 267 -541 513 -34 24 -154 108 -267 187 -113 79 -265 185 -339 237 -73 51
-162 113 -197 138 -35 25 -176 124 -313 220 -194 136 -247 177 -239 188 6 7
13 11 15 9 2 -3 18 9 35 25 17 16 33 27 35 24 3 -2 13 4 24 15 11 11 24 17 29
14 6 -4 10 1 10 10 0 11 5 15 15 12 8 -4 17 -1 21 5 5 7 2 8 -7 4 -8 -4 -5 -1
5 8 10 8 23 13 28 10 5 -3 7 0 6 8 -2 7 3 12 10 10 6 -1 12 2 12 6 0 10 86 72
99 72 5 0 11 4 13 8 7 16 140 102 149 96 5 -3 8 -1 7 4 -2 6 16 24 39 41 44
32 59 38 48 22 -3 -5 -1 -13 5 -16 6 -4 10 -3 9 2 -5 26 5 42 41 63 22 14 40
29 40 34 0 4 7 5 16 2 8 -3 13 -2 10 2 -5 9 163 128 176 124 4 -1 8 2 8 7 0 5
33 31 73 57 39 27 75 54 79 59 5 6 8 6 8 1 0 -6 6 -2 13 9 9 11 19 15 27 10 8
-5 11 -4 7 2 -7 11 69 66 90 66 7 0 10 4 8 8 -8 12 23 31 37 23 7 -4 10 -4 6
1 -7 7 32 45 47 45 3 0 13 6 20 13 36 31 44 35 69 33 14 -2 23 1 20 6 -3 5
-12 7 -20 4 -26 -10 -15 0 44 40 31 21 60 43 63 48 4 5 11 6 17 2 6 -3 14 -1
18 5 5 8 3 9 -6 4 -9 -6 -11 -4 -6 4 5 7 15 10 23 7 8 -3 12 -2 8 3 -3 5 12
20 32 32 21 13 41 28 45 33 4 6 8 8 8 4 0 -4 28 19 61 52 34 33 66 57 72 53 6
-3 7 -2 4 4 -3 5 1 20 10 32 12 18 17 20 25 10 8 -11 9 -11 5 1 -6 21 12 52
25 44 6 -4 9 -3 5 2 -7 12 38 86 47 77 4 -4 4 0 0 10 -4 12 -1 17 11 17 9 0
14 4 11 9 -4 5 7 38 23 73 16 34 32 80 36 100 4 21 10 36 14 34 3 -2 7 14 9
37 1 23 6 44 11 47 9 6 7 312 -3 355 -14 65 -48 170 -72 224 -27 61 -82 151
-93 151 -3 0 -33 -19 -66 -41z"/>
<path d="M2770 2861 c0 -6 4 -13 10 -16 6 -3 7 1 4 9 -7 18 -14 21 -14 7z"/>
<path d="M2655 2780 c3 -5 8 -10 11 -10 2 0 4 5 4 10 0 6 -5 10 -11 10 -5 0
-7 -4 -4 -10z"/>
<path d="M2536 1207 c3 -10 9 -15 12 -12 3 3 0 11 -7 18 -10 9 -11 8 -5 -6z"/>
<path d="M2990 896 c0 -2 8 -10 18 -17 15 -13 16 -12 3 4 -13 16 -21 21 -21
13z"/>
<path d="M3110 801 c0 -6 4 -13 10 -16 6 -3 7 1 4 9 -7 18 -14 21 -14 7z"/>
<path d="M3790 336 c0 -2 8 -10 18 -17 15 -13 16 -12 3 4 -13 16 -21 21 -21
13z"/>
</g>
</svg>
